<svg xmlns="http://www.w3.org/2000/svg" viewBox="0 0 24 24" fill="none" stroke="#0d9488" stroke-width="2" stroke-linecap="round" stroke-linejoin="round">
  <!-- Primary DNA Strand 1 -->
  <path d="M4.5 16.5c-1.5 1.25-2.5 3-2.5 4.5" />
  <path d="M12 12c-3-2.5-5.5-6-5.5-8.5" opacity="0.85" />
  <path d="M12 12c3 2.5 5.5 6 5.5 8.5" opacity="0.85" />
  <path d="M19.5 7.5c1.5-1.25 2.5-3 2.5-4.5" />
  
  <!-- Base Pair Rungs -->
  <path d="m10 8 4 8" stroke="#14b8a6" stroke-width="1.5" />
  <path d="m14 8-4 8" stroke="#14b8a6" stroke-width="1.5" />
  <path d="M9 5h6" stroke="#2dd4bf" stroke-width="1.5" opacity="0.7" />
  <path d="M9 19h6" stroke="#2dd4bf" stroke-width="1.5" opacity="0.7" />

  <!-- Outer Strands 2 -->
  <path d="M4.5 7.5c-1.5-1.25-2.5-3-2.5-4.5" />
  <path d="M19.5 16.5c1.5 1.25 2.5 3 2.5 4.5" />
</svg>
